<?xml version="1.0" encoding="UTF-8" standalone="no"?><svg xmlns="http://www.w3.org/2000/svg" xmlns:xlink="http://www.w3.org/1999/xlink" contentStyleType="text/css" height="2099px" preserveAspectRatio="none" style="width:1331px;height:2099px;background:#FFFFFF;" version="1.1" viewBox="0 0 1331 2099" width="1331px" zoomAndPan="magnify"><defs/><g><!--MD5=[b6dcce5e5ef3c84b0b048d11301373dd]
class Game--><g id="elem_Game"><rect codeLine="2" fill="#F1F1F1" height="153.6563" id="Game" rx="2.5" ry="2.5" style="stroke:#181818;stroke-width:0.5;" width="161" x="277.5" y="7"/><ellipse cx="334.75" cy="23" fill="#ADD1B2" rx="11" ry="11" style="stroke:#181818;stroke-width:1.0;"/><path d="M337.5156,18.875 Q337.6719,18.6563 337.8594,18.5469 Q338.0469,18.4375 338.2656,18.4375 Q338.6406,18.4375 338.875,18.7031 Q339.1094,18.9531 339.1094,19.5625 L339.1094,21.0156 Q339.1094,21.625 338.875,21.8906 Q338.6406,22.1563 338.2656,22.1563 Q337.9219,22.1563 337.7188,21.9531 Q337.5156,21.7656 337.4063,21.25 Q337.3594,20.8906 337.1719,20.7031 Q336.8438,20.3281 336.2344,20.1094 Q335.625,19.8906 335,19.8906 Q334.2344,19.8906 333.5938,20.2188 Q332.9688,20.5469 332.4688,21.2969 Q331.9844,22.0469 331.9844,23.0781 L331.9844,24.1719 Q331.9844,25.4063 332.875,26.2344 Q333.7656,27.0469 335.3594,27.0469 Q336.2969,27.0469 336.9531,26.7969 Q337.3438,26.6406 337.7656,26.2031 Q338.0313,25.9375 338.1719,25.8594 Q338.3281,25.7813 338.5313,25.7813 Q338.8594,25.7813 339.1094,26.0469 Q339.375,26.2969 339.375,26.6406 Q339.375,26.9844 339.0313,27.3906 Q338.5313,27.9688 337.7344,28.2969 Q336.6563,28.75 335.3594,28.75 Q333.8438,28.75 332.6406,28.125 Q331.6563,27.625 330.9688,26.5625 Q330.2813,25.4844 330.2813,24.2031 L330.2813,23.0469 Q330.2813,21.7188 330.8906,20.5781 Q331.5156,19.4219 332.6094,18.8125 Q333.7031,18.1875 334.9375,18.1875 Q335.6719,18.1875 336.3125,18.3594 Q336.9688,18.5156 337.5156,18.875 Z " fill="#000000"/><text fill="#000000" font-family="sans-serif" font-size="14" lengthAdjust="spacing" textLength="38" x="355.25" y="28.7285">Game</text><line style="stroke:#181818;stroke-width:0.5;" x1="278.5" x2="437.5" y1="39" y2="39"/><line style="stroke:#181818;stroke-width:0.5;" x1="278.5" x2="437.5" y1="47" y2="47"/><ellipse cx="288.5" cy="61.3047" fill="#84BE84" rx="3" ry="3" style="stroke:#038048;stroke-width:1.0;"/><text fill="#000000" font-family="sans-serif" font-size="14" lengthAdjust="spacing" text-decoration="underline" textLength="98" x="297.5" y="65.5332">void main(args)</text><rect fill="#F24D5C" height="6" style="stroke:#C82930;stroke-width:1.0;" width="6" x="285.5" y="75.9141"/><text fill="#000000" font-family="sans-serif" font-size="14" lengthAdjust="spacing" textLength="48" x="297.5" y="83.1426">Game()</text><rect fill="#F24D5C" height="6" style="stroke:#C82930;stroke-width:1.0;" width="6" x="285.5" y="93.5234"/><text fill="#000000" font-family="sans-serif" font-size="14" lengthAdjust="spacing" textLength="72" x="297.5" y="100.752">void reset()</text><rect fill="#F24D5C" height="6" style="stroke:#C82930;stroke-width:1.0;" width="6" x="285.5" y="111.1328"/><text fill="#000000" font-family="sans-serif" font-size="14" lengthAdjust="spacing" textLength="111" x="297.5" y="118.3613">void playGames()</text><rect fill="#F24D5C" height="6" style="stroke:#C82930;stroke-width:1.0;" width="6" x="285.5" y="128.7422"/><text fill="#000000" font-family="sans-serif" font-size="14" lengthAdjust="spacing" textLength="104" x="297.5" y="135.9707">void playGame()</text><rect fill="#F24D5C" height="6" style="stroke:#C82930;stroke-width:1.0;" width="6" x="285.5" y="146.3516"/><text fill="#000000" font-family="sans-serif" font-size="14" lengthAdjust="spacing" textLength="135" x="297.5" y="153.5801">boolean isResumed()</text></g><!--MD5=[d93cf99d2b92276f27fe8dbf15140505]
class Turn--><g id="elem_Turn"><rect codeLine="19" fill="#F1F1F1" height="171.2656" id="Turn" rx="2.5" ry="2.5" style="stroke:#181818;stroke-width:0.5;" width="201" x="257.5" y="239"/><ellipse cx="338.75" cy="255" fill="#ADD1B2" rx="11" ry="11" style="stroke:#181818;stroke-width:1.0;"/><path d="M341.5156,250.875 Q341.6719,250.6563 341.8594,250.5469 Q342.0469,250.4375 342.2656,250.4375 Q342.6406,250.4375 342.875,250.7031 Q343.1094,250.9531 343.1094,251.5625 L343.1094,253.0156 Q343.1094,253.625 342.875,253.8906 Q342.6406,254.1563 342.2656,254.1563 Q341.9219,254.1563 341.7188,253.9531 Q341.5156,253.7656 341.4063,253.25 Q341.3594,252.8906 341.1719,252.7031 Q340.8438,252.3281 340.2344,252.1094 Q339.625,251.8906 339,251.8906 Q338.2344,251.8906 337.5938,252.2188 Q336.9688,252.5469 336.4688,253.2969 Q335.9844,254.0469 335.9844,255.0781 L335.9844,256.1719 Q335.9844,257.4063 336.875,258.2344 Q337.7656,259.0469 339.3594,259.0469 Q340.2969,259.0469 340.9531,258.7969 Q341.3438,258.6406 341.7656,258.2031 Q342.0313,257.9375 342.1719,257.8594 Q342.3281,257.7813 342.5313,257.7813 Q342.8594,257.7813 343.1094,258.0469 Q343.375,258.2969 343.375,258.6406 Q343.375,258.9844 343.0313,259.3906 Q342.5313,259.9688 341.7344,260.2969 Q340.6563,260.75 339.3594,260.75 Q337.8438,260.75 336.6406,260.125 Q335.6563,259.625 334.9688,258.5625 Q334.2813,257.4844 334.2813,256.2031 L334.2813,255.0469 Q334.2813,253.7188 334.8906,252.5781 Q335.5156,251.4219 336.6094,250.8125 Q337.7031,250.1875 338.9375,250.1875 Q339.6719,250.1875 340.3125,250.3594 Q340.9688,250.5156 341.5156,250.875 Z " fill="#000000"/><text fill="#000000" font-family="sans-serif" font-size="14" lengthAdjust="spacing" textLength="30" x="359.25" y="260.7285">Turn</text><line style="stroke:#181818;stroke-width:0.5;" x1="258.5" x2="457.5" y1="271" y2="271"/><text fill="#000000" font-family="sans-serif" font-size="14" lengthAdjust="spacing" text-decoration="underline" textLength="175" x="277.5" y="289.5332">int NUMBER_PLAYERS = 2;</text><rect fill="none" height="6" style="stroke:#C82930;stroke-width:1.0;" width="6" x="265.5" y="299.9141"/><text fill="#000000" font-family="sans-serif" font-size="14" lengthAdjust="spacing" textLength="100" x="277.5" y="307.1426">int activePlayer;</text><line style="stroke:#181818;stroke-width:0.5;" x1="258.5" x2="457.5" y1="314.2188" y2="314.2188"/><text fill="#000000" font-family="sans-serif" font-size="14" lengthAdjust="spacing" textLength="77" x="263.5" y="332.752">Turn(board)</text><text fill="#000000" font-family="sans-serif" font-size="14" lengthAdjust="spacing" textLength="72" x="263.5" y="350.3613">void reset()</text><text fill="#000000" font-family="sans-serif" font-size="14" lengthAdjust="spacing" textLength="109" x="263.5" y="367.9707">void dropToken()</text><text fill="#000000" font-family="sans-serif" font-size="14" lengthAdjust="spacing" textLength="109" x="263.5" y="385.5801">void writeResult()</text><text fill="#000000" font-family="sans-serif" font-size="14" lengthAdjust="spacing" textLength="152" x="263.5" y="403.1895">Player getActivePlayer()</text></g><!--MD5=[e2fea1f2bd692924f318492efea2144e]
class Player--><g id="elem_Player"><rect codeLine="35" fill="#F1F1F1" height="153.6563" id="Player" rx="2.5" ry="2.5" style="stroke:#181818;stroke-width:0.5;" width="266" x="679" y="488"/><ellipse cx="787.75" cy="504" fill="#A9DCDF" rx="11" ry="11" style="stroke:#181818;stroke-width:1.0;"/><path d="M789.9375,505.7656 L785.7969,505.7656 L785.375,506.7969 L785.7969,506.7969 Q786.4063,506.7969 786.6719,507.0313 Q786.9375,507.2656 786.9375,507.6563 Q786.9375,508.0313 786.6719,508.2656 Q786.4063,508.5 785.7969,508.5 L783.5,508.5 Q782.8906,508.5 782.6406,508.2656 Q782.375,508.0313 782.375,507.6406 Q782.375,507.2656 782.6563,507.0313 Q782.9219,506.7813 783.5469,506.7969 L786.2188,500.1406 L785.1094,500.1406 Q784.5,500.1406 784.2344,499.9063 Q783.9688,499.6719 783.9688,499.2813 Q783.9688,498.9063 784.2344,498.6719 Q784.5,498.4375 785.1094,498.4375 L788.7813,498.4375 L792.1719,506.7969 Q792.7656,506.7969 792.9531,506.9375 Q793.3438,507.2031 793.3438,507.6563 Q793.3438,508.0313 793.0781,508.2656 Q792.8281,508.5 792.2188,508.5 L789.9219,508.5 Q789.3125,508.5 789.0469,508.2656 Q788.7813,508.0313 788.7813,507.6406 Q788.7813,507.2656 789.0469,507.0313 Q789.3125,506.7969 789.9219,506.7969 L790.3438,506.7969 L789.9375,505.7656 Z M789.2188,504.0625 L787.8594,500.6875 L786.4844,504.0625 L789.2188,504.0625 Z " fill="#000000"/><text fill="#000000" font-family="sans-serif" font-size="14" font-style="italic" lengthAdjust="spacing" textLength="40" x="808.25" y="509.7285">Player</text><line style="stroke:#181818;stroke-width:0.5;" x1="680" x2="944" y1="520" y2="520"/><line style="stroke:#181818;stroke-width:0.5;" x1="680" x2="944" y1="528" y2="528"/><text fill="#000000" font-family="sans-serif" font-size="14" lengthAdjust="spacing" textLength="126" x="699" y="546.5332">Player(color, board)</text><text fill="#000000" font-family="sans-serif" font-size="14" lengthAdjust="spacing" textLength="109" x="699" y="564.1426">void dropToken()</text><polygon fill="#4177AF" points="690,573.5234,686,579.5234,694,579.5234" style="stroke:#1963A0;stroke-width:1.0;"/><text fill="#000000" font-family="sans-serif" font-size="14" lengthAdjust="spacing" textLength="109" x="699" y="581.752">void writePlayer()</text><polygon fill="#4177AF" points="690,591.1328,686,597.1328,694,597.1328" style="stroke:#1963A0;stroke-width:1.0;"/><text fill="#000000" font-family="sans-serif" font-size="14" lengthAdjust="spacing" textLength="156" x="699" y="599.3613">abstract int getColumn();</text><text fill="#000000" font-family="sans-serif" font-size="14" lengthAdjust="spacing" textLength="240" x="699" y="616.9707">public boolean isComplete(int column)</text><text fill="#000000" font-family="sans-serif" font-size="14" lengthAdjust="spacing" textLength="143" x="699" y="634.5801">public Color getColor()</text></g><!--MD5=[d159557bab43e1f13b9627fe22d6ac69]
class UserPlayer--><g id="elem_UserPlayer"><rect codeLine="44" fill="#F1F1F1" height="83.2188" id="UserPlayer" rx="2.5" ry="2.5" style="stroke:#181818;stroke-width:0.5;" width="181" x="1117.5" y="917.5"/><ellipse cx="1169.25" cy="933.5" fill="#ADD1B2" rx="11" ry="11" style="stroke:#181818;stroke-width:1.0;"/><path d="M1172.0156,929.375 Q1172.1719,929.1563 1172.3594,929.0469 Q1172.5469,928.9375 1172.7656,928.9375 Q1173.1406,928.9375 1173.375,929.2031 Q1173.6094,929.4531 1173.6094,930.0625 L1173.6094,931.5156 Q1173.6094,932.125 1173.375,932.3906 Q1173.1406,932.6563 1172.7656,932.6563 Q1172.4219,932.6563 1172.2188,932.4531 Q1172.0156,932.2656 1171.9063,931.75 Q1171.8594,931.3906 1171.6719,931.2031 Q1171.3438,930.8281 1170.7344,930.6094 Q1170.125,930.3906 1169.5,930.3906 Q1168.7344,930.3906 1168.0938,930.7188 Q1167.4688,931.0469 1166.9688,931.7969 Q1166.4844,932.5469 1166.4844,933.5781 L1166.4844,934.6719 Q1166.4844,935.9063 1167.375,936.7344 Q1168.2656,937.5469 1169.8594,937.5469 Q1170.7969,937.5469 1171.4531,937.2969 Q1171.8438,937.1406 1172.2656,936.7031 Q1172.5313,936.4375 1172.6719,936.3594 Q1172.8281,936.2813 1173.0313,936.2813 Q1173.3594,936.2813 1173.6094,936.5469 Q1173.875,936.7969 1173.875,937.1406 Q1173.875,937.4844 1173.5313,937.8906 Q1173.0313,938.4688 1172.2344,938.7969 Q1171.1563,939.25 1169.8594,939.25 Q1168.3438,939.25 1167.1406,938.625 Q1166.1563,938.125 1165.4688,937.0625 Q1164.7813,935.9844 1164.7813,934.7031 L1164.7813,933.5469 Q1164.7813,932.2188 1165.3906,931.0781 Q1166.0156,929.9219 1167.1094,929.3125 Q1168.2031,928.6875 1169.4375,928.6875 Q1170.1719,928.6875 1170.8125,928.8594 Q1171.4688,929.0156 1172.0156,929.375 Z " fill="#000000"/><text fill="#000000" font-family="sans-serif" font-size="14" lengthAdjust="spacing" textLength="69" x="1189.75" y="939.2285">UserPlayer</text><line style="stroke:#181818;stroke-width:0.5;" x1="1118.5" x2="1297.5" y1="949.5" y2="949.5"/><line style="stroke:#181818;stroke-width:0.5;" x1="1118.5" x2="1297.5" y1="957.5" y2="957.5"/><text fill="#000000" font-family="sans-serif" font-size="14" lengthAdjust="spacing" textLength="155" x="1137.5" y="976.0332">UserPlayer(color, board)</text><polygon fill="#4177AF" points="1128.5,985.4141,1124.5,991.4141,1132.5,991.4141" style="stroke:#1963A0;stroke-width:1.0;"/><text fill="#000000" font-family="sans-serif" font-size="14" lengthAdjust="spacing" textLength="97" x="1137.5" y="993.6426">int getColumn()</text></g><!--MD5=[a5da982588f8b35f293d2aa585a3c89c]
class MachinePlayer--><g id="elem_MachinePlayer"><rect codeLine="49" fill="#F1F1F1" height="118.4375" id="MachinePlayer" rx="2.5" ry="2.5" style="stroke:#181818;stroke-width:0.5;" width="205" x="877.5" y="900"/><ellipse cx="928.75" cy="916" fill="#A9DCDF" rx="11" ry="11" style="stroke:#181818;stroke-width:1.0;"/><path d="M930.9375,917.7656 L926.7969,917.7656 L926.375,918.7969 L926.7969,918.7969 Q927.4063,918.7969 927.6719,919.0313 Q927.9375,919.2656 927.9375,919.6563 Q927.9375,920.0313 927.6719,920.2656 Q927.4063,920.5 926.7969,920.5 L924.5,920.5 Q923.8906,920.5 923.6406,920.2656 Q923.375,920.0313 923.375,919.6406 Q923.375,919.2656 923.6563,919.0313 Q923.9219,918.7813 924.5469,918.7969 L927.2188,912.1406 L926.1094,912.1406 Q925.5,912.1406 925.2344,911.9063 Q924.9688,911.6719 924.9688,911.2813 Q924.9688,910.9063 925.2344,910.6719 Q925.5,910.4375 926.1094,910.4375 L929.7813,910.4375 L933.1719,918.7969 Q933.7656,918.7969 933.9531,918.9375 Q934.3438,919.2031 934.3438,919.6563 Q934.3438,920.0313 934.0781,920.2656 Q933.8281,920.5 933.2188,920.5 L930.9219,920.5 Q930.3125,920.5 930.0469,920.2656 Q929.7813,920.0313 929.7813,919.6406 Q929.7813,919.2656 930.0469,919.0313 Q930.3125,918.7969 930.9219,918.7969 L931.3438,918.7969 L930.9375,917.7656 Z M930.2188,916.0625 L928.8594,912.6875 L927.4844,916.0625 L930.2188,916.0625 Z " fill="#000000"/><text fill="#000000" font-family="sans-serif" font-size="14" font-style="italic" lengthAdjust="spacing" textLength="94" x="949.25" y="921.7285">MachinePlayer</text><line style="stroke:#181818;stroke-width:0.5;" x1="878.5" x2="1081.5" y1="932" y2="932"/><line style="stroke:#181818;stroke-width:0.5;" x1="878.5" x2="1081.5" y1="940" y2="940"/><text fill="#000000" font-family="sans-serif" font-size="14" lengthAdjust="spacing" textLength="179" x="897.5" y="958.5332">MachinePlayer(color, board)</text><polygon fill="#4177AF" points="888.5,967.9141,884.5,973.9141,892.5,973.9141" style="stroke:#1963A0;stroke-width:1.0;"/><text fill="#000000" font-family="sans-serif" font-size="14" lengthAdjust="spacing" textLength="97" x="897.5" y="976.1426">int getColumn()</text><polygon fill="#4177AF" points="888.5,985.5234,884.5,991.5234,892.5,991.5234" style="stroke:#1963A0;stroke-width:1.0;"/><text fill="#000000" font-family="sans-serif" font-size="14" lengthAdjust="spacing" textLength="160" x="897.5" y="993.752">abstract int _getColumn()</text><polygon fill="#4177AF" points="888.5,1003.1328,884.5,1009.1328,892.5,1009.1328" style="stroke:#1963A0;stroke-width:1.0;"/><text fill="#000000" font-family="sans-serif" font-size="14" lengthAdjust="spacing" textLength="162" x="897.5" y="1011.3613">void writeColumn(column)</text></g><!--MD5=[bed9476c332430e0fd8ad70c4aac2ffe]
class RandomMachinePlayer--><g id="elem_RandomMachinePlayer"><rect codeLine="56" fill="#F1F1F1" height="100.8281" id="RandomMachinePlayer" rx="2.5" ry="2.5" style="stroke:#181818;stroke-width:0.5;" width="258" x="1066" y="1245.5"/><ellipse cx="1117.75" cy="1261.5" fill="#ADD1B2" rx="11" ry="11" style="stroke:#181818;stroke-width:1.0;"/><path d="M1120.5156,1257.375 Q1120.6719,1257.1563 1120.8594,1257.0469 Q1121.0469,1256.9375 1121.2656,1256.9375 Q1121.6406,1256.9375 1121.875,1257.2031 Q1122.1094,1257.4531 1122.1094,1258.0625 L1122.1094,1259.5156 Q1122.1094,1260.125 1121.875,1260.3906 Q1121.6406,1260.6563 1121.2656,1260.6563 Q1120.9219,1260.6563 1120.7188,1260.4531 Q1120.5156,1260.2656 1120.4063,1259.75 Q1120.3594,1259.3906 1120.1719,1259.2031 Q1119.8438,1258.8281 1119.2344,1258.6094 Q1118.625,1258.3906 1118,1258.3906 Q1117.2344,1258.3906 1116.5938,1258.7188 Q1115.9688,1259.0469 1115.4688,1259.7969 Q1114.9844,1260.5469 1114.9844,1261.5781 L1114.9844,1262.6719 Q1114.9844,1263.9063 1115.875,1264.7344 Q1116.7656,1265.5469 1118.3594,1265.5469 Q1119.2969,1265.5469 1119.9531,1265.2969 Q1120.3438,1265.1406 1120.7656,1264.7031 Q1121.0313,1264.4375 1121.1719,1264.3594 Q1121.3281,1264.2813 1121.5313,1264.2813 Q1121.8594,1264.2813 1122.1094,1264.5469 Q1122.375,1264.7969 1122.375,1265.1406 Q1122.375,1265.4844 1122.0313,1265.8906 Q1121.5313,1266.4688 1120.7344,1266.7969 Q1119.6563,1267.25 1118.3594,1267.25 Q1116.8438,1267.25 1115.6406,1266.625 Q1114.6563,1266.125 1113.9688,1265.0625 Q1113.2813,1263.9844 1113.2813,1262.7031 L1113.2813,1261.5469 Q1113.2813,1260.2188 1113.8906,1259.0781 Q1114.5156,1257.9219 1115.6094,1257.3125 Q1116.7031,1256.6875 1117.9375,1256.6875 Q1118.6719,1256.6875 1119.3125,1256.8594 Q1119.9688,1257.0156 1120.5156,1257.375 Z " fill="#000000"/><text fill="#000000" font-family="sans-serif" font-size="14" lengthAdjust="spacing" textLength="146" x="1138.25" y="1267.2285">RandomMachinePlayer</text><line style="stroke:#181818;stroke-width:0.5;" x1="1067" x2="1323" y1="1277.5" y2="1277.5"/><line style="stroke:#181818;stroke-width:0.5;" x1="1067" x2="1323" y1="1285.5" y2="1285.5"/><text fill="#000000" font-family="sans-serif" font-size="14" lengthAdjust="spacing" textLength="232" x="1086" y="1304.0332">RandomMachinePlayer(color, board)</text><polygon fill="#4177AF" points="1077,1313.4141,1073,1319.4141,1081,1319.4141" style="stroke:#1963A0;stroke-width:1.0;"/><text fill="#000000" font-family="sans-serif" font-size="14" lengthAdjust="spacing" textLength="105" x="1086" y="1321.6426">int _getColumn()</text><polygon fill="#4177AF" points="1077,1331.0234,1073,1337.0234,1081,1337.0234" style="stroke:#1963A0;stroke-width:1.0;"/><text fill="#000000" font-family="sans-serif" font-size="14" lengthAdjust="spacing" textLength="150" x="1086" y="1339.252">int getRandomColumn()</text></g><!--MD5=[9563755d011c5cec7ec66dc53565a59e]
class Board--><g id="elem_Board"><rect codeLine="62" fill="#F1F1F1" height="312.1406" id="Board" rx="2.5" ry="2.5" style="stroke:#181818;stroke-width:0.5;" width="267" x="363.5" y="803"/><ellipse cx="473.75" cy="819" fill="#ADD1B2" rx="11" ry="11" style="stroke:#181818;stroke-width:1.0;"/><path d="M476.5156,814.875 Q476.6719,814.6563 476.8594,814.5469 Q477.0469,814.4375 477.2656,814.4375 Q477.6406,814.4375 477.875,814.7031 Q478.1094,814.9531 478.1094,815.5625 L478.1094,817.0156 Q478.1094,817.625 477.875,817.8906 Q477.6406,818.1563 477.2656,818.1563 Q476.9219,818.1563 476.7188,817.9531 Q476.5156,817.7656 476.4063,817.25 Q476.3594,816.8906 476.1719,816.7031 Q475.8438,816.3281 475.2344,816.1094 Q474.625,815.8906 474,815.8906 Q473.2344,815.8906 472.5938,816.2188 Q471.9688,816.5469 471.4688,817.2969 Q470.9844,818.0469 470.9844,819.0781 L470.9844,820.1719 Q470.9844,821.4063 471.875,822.2344 Q472.7656,823.0469 474.3594,823.0469 Q475.2969,823.0469 475.9531,822.7969 Q476.3438,822.6406 476.7656,822.2031 Q477.0313,821.9375 477.1719,821.8594 Q477.3281,821.7813 477.5313,821.7813 Q477.8594,821.7813 478.1094,822.0469 Q478.375,822.2969 478.375,822.6406 Q478.375,822.9844 478.0313,823.3906 Q477.5313,823.9688 476.7344,824.2969 Q475.6563,824.75 474.3594,824.75 Q472.8438,824.75 471.6406,824.125 Q470.6563,823.625 469.9688,822.5625 Q469.2813,821.4844 469.2813,820.2031 L469.2813,819.0469 Q469.2813,817.7188 469.8906,816.5781 Q470.5156,815.4219 471.6094,814.8125 Q472.7031,814.1875 473.9375,814.1875 Q474.6719,814.1875 475.3125,814.3594 Q475.9688,814.5156 476.5156,814.875 Z " fill="#000000"/><text fill="#000000" font-family="sans-serif" font-size="14" lengthAdjust="spacing" textLength="38" x="494.25" y="824.7285">Board</text><line style="stroke:#181818;stroke-width:0.5;" x1="364.5" x2="629.5" y1="835" y2="835"/><rect fill="none" height="6" style="stroke:#C82930;stroke-width:1.0;" width="6" x="371.5" y="846.3047"/><text fill="#000000" font-family="sans-serif" font-size="14" lengthAdjust="spacing" textLength="131" x="383.5" y="853.5332">Coordinate lastDrop;</text><line style="stroke:#181818;stroke-width:0.5;" x1="364.5" x2="629.5" y1="860.6094" y2="860.6094"/><text fill="#000000" font-family="sans-serif" font-size="14" lengthAdjust="spacing" textLength="48" x="383.5" y="879.1426">Board()</text><text fill="#000000" font-family="sans-serif" font-size="14" lengthAdjust="spacing" textLength="72" x="383.5" y="896.752">void reset()</text><rect fill="#F24D5C" height="6" style="stroke:#C82930;stroke-width:1.0;" width="6" x="371.5" y="907.1328"/><text fill="#000000" font-family="sans-serif" font-size="14" lengthAdjust="spacing" textLength="199" x="383.5" y="914.3613">void setColor(coordinate, color)</text><text fill="#000000" font-family="sans-serif" font-size="14" lengthAdjust="spacing" textLength="193" x="383.5" y="931.9707">void dropToken(column, color)</text><text fill="#000000" font-family="sans-serif" font-size="14" lengthAdjust="spacing" textLength="180" x="383.5" y="949.5801">boolean isComplete(column)</text><text fill="#000000" font-family="sans-serif" font-size="14" lengthAdjust="spacing" textLength="135" x="383.5" y="967.1895">boolean isComplete()</text><text fill="#000000" font-family="sans-serif" font-size="14" lengthAdjust="spacing" textLength="80" x="383.5" y="984.7988">void writeln()</text><rect fill="#F24D5C" height="6" style="stroke:#C82930;stroke-width:1.0;" width="6" x="371.5" y="995.1797"/><text fill="#000000" font-family="sans-serif" font-size="14" lengthAdjust="spacing" textLength="131" x="383.5" y="1002.4082">void writeHorizontal()</text><text fill="#000000" font-family="sans-serif" font-size="14" lengthAdjust="spacing" textLength="120" x="383.5" y="1020.0176">boolean isWinner()</text><rect fill="#F24D5C" height="6" style="stroke:#C82930;stroke-width:1.0;" width="6" x="371.5" y="1030.3984"/><text fill="#000000" font-family="sans-serif" font-size="14" lengthAdjust="spacing" textLength="194" x="383.5" y="1037.627">boolean isWinner(coordinates)</text><text fill="#000000" font-family="sans-serif" font-size="14" lengthAdjust="spacing" textLength="109" x="383.5" y="1055.2363">void writeResult()</text><rect fill="#F24D5C" height="6" style="stroke:#C82930;stroke-width:1.0;" width="6" x="371.5" y="1065.6172"/><text fill="#000000" font-family="sans-serif" font-size="14" lengthAdjust="spacing" textLength="241" x="383.5" y="1072.8457">boolean isOccupied(coordinate, color)</text><rect fill="#F24D5C" height="6" style="stroke:#C82930;stroke-width:1.0;" width="6" x="371.5" y="1083.2266"/><text fill="#000000" font-family="sans-serif" font-size="14" lengthAdjust="spacing" textLength="181" x="383.5" y="1090.4551">boolean isEmpty(coordinate)</text><rect fill="#F24D5C" height="6" style="stroke:#C82930;stroke-width:1.0;" width="6" x="371.5" y="1100.8359"/><text fill="#000000" font-family="sans-serif" font-size="14" lengthAdjust="spacing" textLength="169" x="383.5" y="1108.0645">Color getColor(coordinate)</text></g><!--MD5=[a6f9e01189e6a3f03ead5432217271d3]
class Color--><g id="elem_Color"><rect codeLine="92" fill="#F1F1F1" height="206.4844" id="Color" rx="2.5" ry="2.5" style="stroke:#181818;stroke-width:0.5;" width="336" x="695" y="1193"/><ellipse cx="841.75" cy="1209" fill="#EB937F" rx="11" ry="11" style="stroke:#181818;stroke-width:1.0;"/><path d="M840.6094,1209.7969 L840.6094,1212.2969 L844.9375,1212.2969 L844.9375,1211.375 Q844.9375,1210.7656 845.1719,1210.5 Q845.4219,1210.2344 845.7969,1210.2344 Q846.1719,1210.2344 846.4063,1210.5 Q846.6406,1210.7656 846.6406,1211.375 L846.6406,1214 L838.6406,1214 Q838.0156,1214 837.75,1213.7656 Q837.5,1213.5313 837.5,1213.1406 Q837.5,1212.7656 837.7656,1212.5313 Q838.0313,1212.2969 838.6406,1212.2969 L838.9063,1212.2969 L838.9063,1205.6406 L838.6406,1205.6406 Q838.0156,1205.6406 837.75,1205.4063 Q837.5,1205.1719 837.5,1204.7813 Q837.5,1204.4063 837.75,1204.1719 Q838.0156,1203.9375 838.6406,1203.9375 L846.2656,1203.9375 L846.2656,1206.5313 Q846.2656,1207.1406 846.0313,1207.4063 Q845.8125,1207.6563 845.4219,1207.6563 Q845.0469,1207.6563 844.8125,1207.4063 Q844.5781,1207.1406 844.5781,1206.5313 L844.5781,1205.6406 L840.6094,1205.6406 L840.6094,1208.0938 L842.0938,1208.0938 Q842.0938,1207.4375 842.2188,1207.25 Q842.4844,1206.8438 842.9531,1206.8438 Q843.3281,1206.8438 843.5625,1207.1094 Q843.7969,1207.3594 843.7969,1207.9688 L843.7969,1209.9375 Q843.7969,1210.4844 843.6719,1210.6719 Q843.4063,1211.0625 842.9531,1211.0625 Q842.4844,1211.0625 842.2188,1210.6563 Q842.0938,1210.4688 842.0938,1209.7969 L840.6094,1209.7969 Z " fill="#000000"/><text fill="#000000" font-family="sans-serif" font-size="14" lengthAdjust="spacing" textLength="34" x="862.25" y="1214.7285">Color</text><line style="stroke:#181818;stroke-width:0.5;" x1="696" x2="1030" y1="1225" y2="1225"/><text fill="#000000" font-family="sans-serif" font-size="14" lengthAdjust="spacing" textLength="29" x="715" y="1243.5332">RED</text><text fill="#000000" font-family="sans-serif" font-size="14" lengthAdjust="spacing" textLength="58" x="715" y="1261.1426">YELLOW</text><text fill="#000000" font-family="sans-serif" font-size="14" lengthAdjust="spacing" textLength="34" x="715" y="1278.752">NULL</text><rect fill="none" height="6" style="stroke:#C82930;stroke-width:1.0;" width="6" x="703" y="1289.1328"/><text fill="#000000" font-family="sans-serif" font-size="14" lengthAdjust="spacing" text-decoration="underline" textLength="310" x="715" y="1296.3613">Color[] PLAYERS = {Color.RED, Color.YELLOW};</text><line style="stroke:#181818;stroke-width:0.5;" x1="696" x2="1030" y1="1303.4375" y2="1303.4375"/><ellipse cx="706" cy="1317.7422" fill="#84BE84" rx="3" ry="3" style="stroke:#038048;stroke-width:1.0;"/><text fill="#000000" font-family="sans-serif" font-size="14" lengthAdjust="spacing" text-decoration="underline" textLength="111" x="715" y="1321.9707">Color get(ordinal)</text><ellipse cx="706" cy="1335.3516" fill="#84BE84" rx="3" ry="3" style="stroke:#038048;stroke-width:1.0;"/><text fill="#000000" font-family="sans-serif" font-size="14" lengthAdjust="spacing" textLength="98" x="715" y="1339.5801">boolean isNull()</text><ellipse cx="706" cy="1352.9609" fill="#84BE84" rx="3" ry="3" style="stroke:#038048;stroke-width:1.0;"/><text fill="#000000" font-family="sans-serif" font-size="14" lengthAdjust="spacing" textLength="125" x="715" y="1357.1895">Color getOpposite()</text><ellipse cx="706" cy="1370.5703" fill="#84BE84" rx="3" ry="3" style="stroke:#038048;stroke-width:1.0;"/><text fill="#000000" font-family="sans-serif" font-size="14" lengthAdjust="spacing" textLength="96" x="715" y="1374.7988">char getCode()</text><ellipse cx="706" cy="1388.1797" fill="#84BE84" rx="3" ry="3" style="stroke:#038048;stroke-width:1.0;"/><text fill="#000000" font-family="sans-serif" font-size="14" lengthAdjust="spacing" textLength="100" x="715" y="1392.4082">String toString()</text></g><!--MD5=[02f7077ed79257124e28b791f351f1d7]
class Coordinate--><g id="elem_Coordinate"><rect codeLine="124" fill="#F1F1F1" height="224.0938" id="Coordinate" rx="2.5" ry="2.5" style="stroke:#181818;stroke-width:0.5;" width="208" x="324" y="1868"/><ellipse cx="388.75" cy="1884" fill="#ADD1B2" rx="11" ry="11" style="stroke:#181818;stroke-width:1.0;"/><path d="M391.5156,1879.875 Q391.6719,1879.6563 391.8594,1879.5469 Q392.0469,1879.4375 392.2656,1879.4375 Q392.6406,1879.4375 392.875,1879.7031 Q393.1094,1879.9531 393.1094,1880.5625 L393.1094,1882.0156 Q393.1094,1882.625 392.875,1882.8906 Q392.6406,1883.1563 392.2656,1883.1563 Q391.9219,1883.1563 391.7188,1882.9531 Q391.5156,1882.7656 391.4063,1882.25 Q391.3594,1881.8906 391.1719,1881.7031 Q390.8438,1881.3281 390.2344,1881.1094 Q389.625,1880.8906 389,1880.8906 Q388.2344,1880.8906 387.5938,1881.2188 Q386.9688,1881.5469 386.4688,1882.2969 Q385.9844,1883.0469 385.9844,1884.0781 L385.9844,1885.1719 Q385.9844,1886.4063 386.875,1887.2344 Q387.7656,1888.0469 389.3594,1888.0469 Q390.2969,1888.0469 390.9531,1887.7969 Q391.3438,1887.6406 391.7656,1887.2031 Q392.0313,1886.9375 392.1719,1886.8594 Q392.3281,1886.7813 392.5313,1886.7813 Q392.8594,1886.7813 393.1094,1887.0469 Q393.375,1887.2969 393.375,1887.6406 Q393.375,1887.9844 393.0313,1888.3906 Q392.5313,1888.9688 391.7344,1889.2969 Q390.6563,1889.75 389.3594,1889.75 Q387.8438,1889.75 386.6406,1889.125 Q385.6563,1888.625 384.9688,1887.5625 Q384.2813,1886.4844 384.2813,1885.2031 L384.2813,1884.0469 Q384.2813,1882.7188 384.8906,1881.5781 Q385.5156,1880.4219 386.6094,1879.8125 Q387.7031,1879.1875 388.9375,1879.1875 Q389.6719,1879.1875 390.3125,1879.3594 Q390.9688,1879.5156 391.5156,1879.875 Z " fill="#000000"/><text fill="#000000" font-family="sans-serif" font-size="14" lengthAdjust="spacing" textLength="70" x="409.25" y="1889.7285">Coordinate</text><line style="stroke:#181818;stroke-width:0.5;" x1="325" x2="531" y1="1900" y2="1900"/><rect fill="none" height="6" style="stroke:#C82930;stroke-width:1.0;" width="6" x="332" y="1911.3047"/><text fill="#000000" font-family="sans-serif" font-size="14" lengthAdjust="spacing" textLength="68" x="344" y="1918.5332">int column;</text><rect fill="none" height="6" style="stroke:#C82930;stroke-width:1.0;" width="6" x="332" y="1928.9141"/><text fill="#000000" font-family="sans-serif" font-size="14" lengthAdjust="spacing" textLength="45" x="344" y="1936.1426">int row;</text><line style="stroke:#181818;stroke-width:0.5;" x1="325" x2="531" y1="1943.2188" y2="1943.2188"/><text fill="#000000" font-family="sans-serif" font-size="14" lengthAdjust="spacing" textLength="121" x="330" y="1961.752">public Coordinate()</text><text fill="#000000" font-family="sans-serif" font-size="14" lengthAdjust="spacing" textLength="196" x="330" y="1979.3613">public Coordinate(row, column)</text><text fill="#000000" font-family="sans-serif" font-size="14" lengthAdjust="spacing" textLength="155" x="330" y="1996.9707">public Coordinate copy()</text><text fill="#000000" font-family="sans-serif" font-size="14" lengthAdjust="spacing" textLength="117" x="330" y="2014.5801">public int getRow()</text><text fill="#000000" font-family="sans-serif" font-size="14" lengthAdjust="spacing" textLength="138" x="330" y="2032.1895">public int getColumn()</text><text fill="#000000" font-family="sans-serif" font-size="14" lengthAdjust="spacing" textLength="141" x="330" y="2049.7988">public String toString()</text><text fill="#000000" font-family="sans-serif" font-size="14" lengthAdjust="spacing" textLength="135" x="330" y="2067.4082">public int hashCode()</text><text fill="#000000" font-family="sans-serif" font-size="14" lengthAdjust="spacing" textLength="167" x="330" y="2085.0176">public boolean equals(obj)</text></g><!--MD5=[f0e50675208408ddbf1ed7a91f4eb071]
reverse link Player to UserPlayer--><g id="link_Player_UserPlayer"><path d="M934.31,654.57 C988.11,696.48 1050.24,749.09 1100,803 C1132.81,838.55 1163.67,884.59 1183.93,917.23 " fill="none" id="Player-backto-UserPlayer" style="stroke:#181818;stroke-width:1.0;"/><polygon fill="none" points="929.84,659.96,918.28,642.2,938.39,648.88,929.84,659.96" style="stroke:#181818;stroke-width:1.0;"/></g><!--MD5=[4aaf64a3b46ac69571bc27f36998f581]
reverse link Player to MachinePlayer--><g id="link_Player_MachinePlayer"><path d="M852.65,660.85 C884.58,735.35 928.02,836.71 955.02,899.71 " fill="none" id="Player-backto-MachinePlayer" style="stroke:#181818;stroke-width:1.0;"/><polygon fill="none" points="846.04,663.19,844.59,642.05,858.9,657.67,846.04,663.19" style="stroke:#181818;stroke-width:1.0;"/></g><!--MD5=[cdfec8ce64db74be1451ee2d456ce1da]
reverse link MachinePlayer to RandomMachinePlayer--><g id="link_MachinePlayer_RandomMachinePlayer"><path d="M1028.33,1035.31 C1069.56,1099.54 1127.64,1190.04 1163.23,1245.49 " fill="none" id="MachinePlayer-backto-RandomMachinePlayer" style="stroke:#181818;stroke-width:1.0;"/><polygon fill="none" points="1022.36,1038.97,1017.45,1018.35,1034.14,1031.4,1022.36,1038.97" style="stroke:#181818;stroke-width:1.0;"/></g><!--MD5=[b9f1e39ad85d50fe6f3a071a4341c320]
link Game to Turn--><g id="link_Game_Turn"><path codeLine="144" d="M358,173.12 C358,173.12 358,208.56 358,225.48 " fill="none" id="Game-Turn" style="stroke:#181818;stroke-width:1.0;"/><polygon fill="#181818" points="358,238.59,362,229.59,358,233.59,354,229.59,358,238.59" style="stroke:#181818;stroke-width:1.0;"/><line style="stroke:#181818;stroke-width:1.0;" x1="358" x2="358" y1="233.59" y2="225.59"/><polygon fill="#181818" points="358,161.12,354,167.12,358,173.12,362,167.12,358,161.12" style="stroke:#181818;stroke-width:1.0;"/><text fill="#000000" font-family="sans-serif" font-size="13" lengthAdjust="spacing" textLength="22" x="359" y="205.4951">turn</text></g><!--MD5=[15c8f9ca3aac13d865864b4eb5314ef1]
link Game to Board--><g id="link_Game_Board"><path codeLine="145" d="M438.4252,170.8411 C438.4252,170.8411 467.59,215.35 476,239 C539.94,418.9 535,640.36 520.64,789.58 " fill="none" id="Game-Board" style="stroke:#181818;stroke-width:1.0;"/><polygon fill="#181818" points="519.32,802.89,524.1901,794.3295,519.8143,797.9145,516.2293,793.5387,519.32,802.89" style="stroke:#181818;stroke-width:1.0;"/><line style="stroke:#181818;stroke-width:1.0;" x1="519.8143" x2="520.61" y1="797.9145" y2="789.95"/><polygon fill="#181818" points="431.24,161.23,431.6289,168.4306,438.4252,170.8411,438.0363,163.6405,431.24,161.23" style="stroke:#181818;stroke-width:1.0;"/><text fill="#000000" font-family="sans-serif" font-size="13" lengthAdjust="spacing" textLength="32" x="522" y="454.4951">board</text></g><!--MD5=[ddcb99f46646a8b6790e04143c0a34ed]
link Turn to Player--><g id="link_Turn_Player"><path codeLine="147" d="M393.5406,420.5377 C393.5406,420.5377 412.84,448.06 425,458 C492.71,513.32 587.05,539.87 665.64,552.57 " fill="none" id="Turn-Player" style="stroke:#181818;stroke-width:1.0;"/><polygon fill="#181818" points="678.61,554.57,670.3202,549.2522,673.6678,553.8122,669.1077,557.1597,678.61,554.57" style="stroke:#181818;stroke-width:1.0;"/><line style="stroke:#181818;stroke-width:1.0;" x1="673.6678" x2="665.76" y1="553.8122" y2="552.59"/><polygon fill="#181818" points="387.55,410.14,387.0794,417.3357,393.5406,420.5377,394.0112,413.342,387.55,410.14" style="stroke:#181818;stroke-width:1.0;"/><text fill="#000000" font-family="sans-serif" font-size="13" lengthAdjust="spacing" textLength="42" x="426" y="454.4951">players</text><text fill="#000000" font-family="sans-serif" font-size="13" lengthAdjust="spacing" textLength="7" x="664.1238" y="551.0762">2</text></g><!--MD5=[aeb9c8b6d1fa4b3f4e931948f58ad7cf]
link Turn to Board--><g id="link_Turn_Board"><path codeLine="148" d="M376.6,410.15 C398.31,508.92 434.68,674.42 461.78,797.73 " fill="none" id="Turn-to-Board" style="stroke:#181818;stroke-width:1.0;"/><polygon fill="#181818" points="462.9,802.83,464.8793,793.1821,461.829,797.9461,457.065,794.8957,462.9,802.83" style="stroke:#181818;stroke-width:1.0;"/><text fill="#000000" font-family="sans-serif" font-size="13" lengthAdjust="spacing" textLength="32" x="428" y="570.4951">board</text></g><!--MD5=[78b14222b34f68066921d914ef484ddc]
link Player to Color--><g id="link_Player_Color"><path codeLine="151" d="M810.8873,654.1799 C810.8873,654.1799 812.66,953.66 830,1115 C832.26,1136.03 835.57,1158.29 839.24,1179.72 " fill="none" id="Player-Color" style="stroke:#181818;stroke-width:1.0;"/><polygon fill="#181818" points="841.5,1192.58,843.8781,1183.0226,840.6326,1187.6558,835.9994,1184.4103,841.5,1192.58" style="stroke:#181818;stroke-width:1.0;"/><line style="stroke:#181818;stroke-width:1.0;" x1="840.6326" x2="839.255" y1="1187.6558" y2="1179.78"/><polygon fill="#181818" points="810.94,642.18,806.9137,648.1624,810.8873,654.1799,814.9136,648.1975,810.94,642.18" style="stroke:#181818;stroke-width:1.0;"/><text fill="#000000" font-family="sans-serif" font-size="13" lengthAdjust="spacing" textLength="28" x="831" y="964.4951">color</text></g><!--MD5=[c1f7e88598f78d9459764ed93737eb14]
link Player to Board--><g id="link_Player_Board"><path codeLine="152" d="M750.89,642.05 C715.15,686.53 668.64,744.41 625.21,798.45 " fill="none" id="Player-to-Board" style="stroke:#181818;stroke-width:1.0;"/><polygon fill="#181818" points="621.82,802.67,630.5799,798.1684,624.9557,798.7755,624.3486,793.1513,621.82,802.67" style="stroke:#181818;stroke-width:1.0;"/><text fill="#000000" font-family="sans-serif" font-size="13" lengthAdjust="spacing" textLength="32" x="719" y="727.9951">board</text></g><!--MD5=[e8e56f95b2bfb8e03c3cdf9f0e0c50ee]
link Board to Color--><g id="link_Board_Color"><path codeLine="153" d="M639.543,1090.4609 C639.543,1090.4609 709.07,1154.11 741.39,1183.69 " fill="none" id="Board-Color" style="stroke:#181818;stroke-width:1.0;"/><polygon fill="#181818" points="751.32,1192.78,747.3739,1183.7562,747.6288,1189.4074,741.9777,1189.6622,751.32,1192.78" style="stroke:#181818;stroke-width:1.0;"/><line style="stroke:#181818;stroke-width:1.0;" x1="747.6288" x2="741.73" y1="1189.4074" y2="1184"/><polygon fill="#181818" points="630.69,1082.36,632.4162,1089.3615,639.543,1090.4609,637.8168,1083.4595,630.69,1082.36" style="stroke:#181818;stroke-width:1.0;"/><text fill="#000000" font-family="sans-serif" font-size="13" lengthAdjust="spacing" textLength="35" x="713" y="1159.4951">colors</text><text fill="#000000" font-family="sans-serif" font-size="13" lengthAdjust="spacing" textLength="21" x="721.3474" y="1182.1025">6x7</text></g><!--MD5=[74961bfc5f5682abb8348413ea1a208a]
link Board to Coordinate--><g id="link_Board_Coordinate"><path codeLine="155" d="M580.88,1115.24 C591.26,1140.59 600.23,1167.06 606,1193 C658.95,1431.13 557.2,1709.49 486.92,1862.82 " fill="none" id="Board-to-Coordinate" style="stroke:#181818;stroke-width:1.0;stroke-dasharray:7.0,7.0;"/><polygon fill="#181818" points="484.64,1867.77,492.0304,1861.2598,486.7262,1863.226,484.76,1857.9219,484.64,1867.77" style="stroke:#181818;stroke-width:1.0;"/></g><!--MD5=[a676224b545de2f8b00c905b7798379b]
@startuml

class Game {
  + {static} void main(args)
  - Game()
  - void reset()
  - void playGames()
  - void playGame()
  - boolean isResumed()
}

class Turn {
  {static} int NUMBER_PLAYERS = 2;
  - int activePlayer;
  Turn(board)
  void reset()
  void dropToken()
  void writeResult()
  Player getActivePlayer()
}


abstract class Player {
  Player(color, board)
  void dropToken()
  ~ void writePlayer()
  ~ abstract int getColumn();
  public boolean isComplete(int column)
  public Color getColor()
}

class UserPlayer extends Player {
  UserPlayer(color, board)
  ~ int getColumn()
}

abstract class MachinePlayer extends Player {
  MachinePlayer(color, board)
  ~ int getColumn()
  ~ abstract int _getColumn()
  ~ void writeColumn(column)
}

class RandomMachinePlayer extends MachinePlayer {
  RandomMachinePlayer(color, board)
  ~ int _getColumn()
  ~ int getRandomColumn()
}

class Board {
  - Coordinate lastDrop;
  Board()
  void reset()
  - void setColor(coordinate, color)
  void dropToken(column, color)
  boolean isComplete(column)
  boolean isComplete()
  void writeln()
  - void writeHorizontal()
  boolean isWinner()
  - boolean isWinner(coordinates)
  void writeResult()
  - boolean isOccupied(coordinate, color)
  - boolean isEmpty(coordinate)
  - Color getColor(coordinate)
}


enum Color {
  RED
  YELLOW
  NULL
  - {static} Color[] PLAYERS = {Color.RED, Color.YELLOW};
  + {static} Color get(ordinal)
  + boolean isNull()
  + Color getOpposite()
  + char getCode()
  + String toString()
}


class Coordinate {
	- int column;
	- int row;
	public Coordinate() 
	public Coordinate(row, column)
	public Coordinate copy()
	public int getRow()
	public int getColumn() 
	public String toString() 
	public int hashCode()
	public boolean equals(obj) 
}

Game *-down-> Turn : turn
Game *-down-> Board : board
Turn *-down-> "2" Player : players
Turn -down-> Board : board
Turn .down.> BoundedIntDialog
BoundedIntDialog .down.> ClosedInterval
Player *-down-> Color : color
Player -down-> Board : board
Board *-down-> "6x7" Color : colors
Board .down.> Coordinate
Board .down.> ClosedInterval
Direction *-down-> Coordinate
Direction .down.> ClosedInterval

@enduml

PlantUML version 1.2022.7(Mon Aug 22 19:01:30 CEST 2022)
(GPL source distribution)
Java Runtime: Java(TM) SE Runtime Environment
JVM: Java HotSpot(TM) 64-Bit Server VM
Default Encoding: Cp1252
Language: es
Country: ES
--></g></svg>